<svg xmlns="http://www.w3.org/2000/svg" viewBox="0 0 170.19 65.2"><defs><style>.cls-1{fill:#727171;}.cls-2{fill:#4653a2;}</style></defs><g id="레이어_2" data-name="레이어 2"><g id="레이어_1-2" data-name="레이어 1"><path class="cls-1" d="M80.3,0a8.85,8.85,0,0,1,6.48,2.58,8.62,8.62,0,0,1,2.6,6.36,8.62,8.62,0,0,1-2.6,6.34,8.59,8.59,0,0,1-6.34,2.61,8.7,8.7,0,0,1-6.39-2.6A8.52,8.52,0,0,1,71.44,9a9.09,9.09,0,0,1,1.19-4.55,8.58,8.58,0,0,1,3.24-3.28A8.68,8.68,0,0,1,80.3,0Zm.08,1.66a7,7,0,0,0-3.59,1,7.14,7.14,0,0,0-2.64,2.65A7.46,7.46,0,0,0,73.2,9a7,7,0,0,0,2.1,5.13,7,7,0,0,0,5.08,2.09,7.31,7.31,0,0,0,3.67-1,6.92,6.92,0,0,0,2.63-2.63,7.39,7.39,0,0,0,.94-3.71,7.24,7.24,0,0,0-.94-3.67,7.37,7.37,0,0,0-6.3-3.6Z"/><path class="cls-1" d="M92.1,17.46V.43h.37L103.8,13.48V.43h1.68v17h-.38L93.86,4.56v12.9Z"/><path class="cls-1" d="M72.19,41.16v-17h3.53a18,18,0,0,1,5.55.61,7.41,7.41,0,0,1,3.87,3,9.15,9.15,0,0,1,1.4,5.1,9,9,0,0,1-1.11,4.51,7.14,7.14,0,0,1-2.87,2.87,10.81,10.81,0,0,1-5,.92Zm1.64-1.6h2a18.46,18.46,0,0,0,4.9-.44,5.67,5.67,0,0,0,3-2.25,7,7,0,0,0,1.1-4,7.34,7.34,0,0,0-1.19-4.21,6,6,0,0,0-3.32-2.39A20.25,20.25,0,0,0,75,25.8h-1.2Z"/><path class="cls-1" d="M89.14,24.14h9.75V25.8h-8v5.34h8v1.67h-8V39.5h8v1.66H89.14Z"/><path class="cls-1" d="M100.35,41.16l2.43-17h.28l6.92,14,6.86-14h.27l2.45,17H117.9L116.21,29l-6,12.17h-.43l-6.1-12.27L102,41.16Z"/><path class="cls-1" d="M129.16,24.14l7.94,17h-1.84l-2.68-5.6h-7.34l-2.65,5.6h-1.9l8.05-17Zm-.22,3.61L126,33.92h5.82Z"/><path class="cls-1" d="M139,41.16v-17h.37l11.33,13v-13h1.68v17H152L140.8,28.27V41.16Z"/><path class="cls-1" d="M155.85,41.16v-17h3.53a18,18,0,0,1,5.55.61,7.41,7.41,0,0,1,3.87,3,9.14,9.14,0,0,1,1.39,5.1,9,9,0,0,1-1.1,4.51,7.2,7.2,0,0,1-2.87,2.87,10.81,10.81,0,0,1-4.95.92Zm1.63-1.6h2a18.46,18.46,0,0,0,4.9-.44,5.67,5.67,0,0,0,3-2.25,7,7,0,0,0,1.1-4,7.34,7.34,0,0,0-1.19-4.21A6,6,0,0,0,164,26.29a20.16,20.16,0,0,0-5.26-.49h-1.21Z"/><path class="cls-2" d="M72.07,47.84h3.24V61.78H80v3.09h-8Z"/><path class="cls-2" d="M88.39,47.84h3.29l6.55,17H94.86l-1.33-3.5h-7l-1.39,3.5H81.83Zm1.66,4.52L87.77,58.2h4.56Z"/><path class="cls-2" d="M100,64.87v-17h2.68a13.37,13.37,0,0,1,3.41.31,4.55,4.55,0,0,1,2.43,1.5,3.92,3.92,0,0,1,.91,2.59A3.73,3.73,0,0,1,109,54a4.45,4.45,0,0,1-1.33,1.49A5.31,5.31,0,0,1,110,57.32a4.59,4.59,0,0,1,.71,2.59,4.75,4.75,0,0,1-.74,2.61A4.7,4.7,0,0,1,108,64.29a7.35,7.35,0,0,1-3.23.58Zm3.24-13.93v3.58H104a2.64,2.64,0,0,0,1.76-.49,1.71,1.71,0,0,0,.58-1.36,1.59,1.59,0,0,0-.55-1.27,2.49,2.49,0,0,0-1.66-.46Zm0,6.48v4.36h.82a5,5,0,0,0,2.72-.51,1.71,1.71,0,0,0,.7-1.48,2.09,2.09,0,0,0-.82-1.74,4.61,4.61,0,0,0-2.74-.63Z"/><path class="cls-2" d="M114.3,61.57a1.75,1.75,0,0,1,1.28.53,1.82,1.82,0,0,1-1.28,3.1A1.82,1.82,0,0,1,113,62.1,1.79,1.79,0,0,1,114.3,61.57Z"/><path class="cls-2" d="M24.67,39.31a7.36,7.36,0,1,0-11.28,9.46L25,62.57A7.36,7.36,0,0,0,36.3,53.1Z"/><path class="cls-2" d="M7.3,50.59a7.31,7.31,0,1,0,7.31,7.3A7.3,7.3,0,0,0,7.3,50.59Z"/><path class="cls-2" d="M59.76,53.1,37.88,27V7.36a7.36,7.36,0,0,0-14.72,0v22.1a7.23,7.23,0,0,0,.89,3.43,7.18,7.18,0,0,0,1.1,1.86L48.48,62.57A7.36,7.36,0,0,0,59.76,53.1Z"/></g></g></svg>